<?xml version="1.0" encoding="UTF-8"?>
<svg id="Layer_1" xmlns="http://www.w3.org/2000/svg" viewBox="0 0 1651.58 356.48">
  <defs>
    <style>
      .cls-1 {
        fill: #fff;
      }
    </style>
  </defs>
  <path class="cls-1" d="M0,356.48V0h1651.58v356.48H0ZM628.71,26.25c.13,58.82-.02,117.31.51,175.64,3.93,1.07,34.35,1,37.63-.06,0-4.08,0-8.29,0-12.5,0-4.23.01-8.47.02-12.7,0-4.36.01-8.71.02-13.07,0-4.23.01-8.47.02-12.7s.01-8.47.02-12.7.01-8.47.02-12.7c0-4.36-.03-8.71.03-13.07.06-4.11-.23-8.25.56-12.4,1.18,1.13,2.01,2.3,2.76,3.52,6.45,10.52,12.88,21.05,19.31,31.58,9.27,15.17,18.59,30.32,27.77,45.55,1.43,2.37,3.01,3.46,5.8,3.29,3.62-.21,7.27-.17,10.89-.01,2.48.11,3.97-.77,5.23-2.94,4.73-8.16,9.65-16.21,14.49-24.31,11.18-18.68,22.35-37.38,33.55-56.05.62-1.03.95-2.41,2.7-2.89.16,17.67.31,35.08.47,52.48.17,17.36.03,34.73.36,51.99,5.13.88,34.37.62,37.13-.29V26.13c-1.55-.08-2.85-.19-4.14-.2-8.35-.02-16.72.17-25.06-.1-3.3-.11-4.91,1.15-6.5,3.85-20.18,34.3-40.47,68.54-60.74,102.79-.66,1.12-1.42,2.18-2.41,3.69-.99-1.49-1.74-2.55-2.41-3.66-10.49-17.41-20.96-34.83-31.44-52.24-10.36-17.2-20.75-34.39-31.05-51.63-1.1-1.84-2.27-2.78-4.55-2.75-9.44.12-18.89.05-28.33.07-.71,0-1.42.16-2.65.3ZM1183.74,291.94v.2c-20.7,0-41.41-.01-62.11,0-6.05,0-12.11.15-18.16.15-3.62,0-6.14,1.53-7.99,4.66-2.28,3.84-3.63,7.83-3.48,12.34.14,4.11,0,8.23.15,12.34.07,2.17.16,4.41.76,6.46,2.6,8.84,5.13,10.39,12.43,10.33,23.36-.16,46.72-.07,70.08-.05,14.29.01,28.57.1,42.86.1,2.36,0,4.56.22,6.48,1.81.61.51,1.54.88,2.32.89,3.82.02,7.74.88,11.31-1.39,1.62-1.03,3.32-1.17,5.15-.18,5.04,2.74,10.16,2.36,15.33.21,1.54-.64,3.23-1.02,4.89-1.23,1.66-.21,2.87-.45,3.56-2.37.71-1.98,3.55-2.3,4.26-.49,1.17,2.98,3.35,2.64,5.62,2.64,23.96,0,47.93-.01,71.89,0,12.95.01,25.91.1,38.86.1,2.94,0,5.81,0,8.25,2.03.51.43,1.34.67,2.03.67,3.82.01,7.75.87,11.3-1.44,1.64-1.06,3.35-1.06,5.15-.1,4.93,2.64,9.93,2.32,15,.29,1.66-.66,3.45-1.09,5.23-1.36,1.52-.23,2.87-.37,3.3-2.19.34-1.44,1.51-1.75,2.82-1.74,1.21,0,2.2.41,2.42,1.71.33,1.9,1.68,2.14,3.23,2.14,3.51,0,7.02.03,10.53,0,2.11-.02,4.04.31,5.81,1.64.82.61,1.96,1.08,2.96,1.11,4.08.1,8.26.68,11.95-1.86,1.2-.83,2.45-.93,3.72-.06,4.54,3.09,9.37,2.39,14.25,1.04,2.31-.64,4.64-1.73,6.97-1.75,16.95-.15,33.9-.11,50.85-.04,1.51,0,3.16.39,4.5,1.09,4.99,2.59,9.92,2.6,14.82,0,2.03-1.08,3.76-1.05,5.78.11,4.5,2.59,9.3,2.26,13.93.49,2.88-1.1,5.67-1.82,8.78-1.77,8.35.12,16.71.05,25.06.04,1.81,0,3.67.12,5.43-.2,1.97-.36,4.03-.88,5.76-1.84,4.43-2.46,4.83-5.76,1.18-9.34-1.62-1.59-3.51-2.96-5.41-4.23-10.95-7.3-21.94-14.54-32.92-21.8-4.76-3.14-9.83-5.54-15.32-7.19-5.53-1.66-11.14-2.23-16.84-2.22-7.87.02-15.73.23-23.6.24-32.45.03-64.9,0-97.34.01-4.4,0-4.49.11-4.45,4.46.08,9.8.18,19.6.26,29.4,0,1.09.02,2.18-.13,3.25-.17,1.23-1.04,2.14-2.22,1.89-.9-.19-1.97-.96-2.37-1.77-.43-.89-.23-2.12-.22-3.2.09-10.04.22-20.08.31-30.12.03-3.42-.35-3.78-3.65-3.9-.85-.03-1.69,0-2.54,0-37.77.05-75.55.1-113.32.16-14.65.03-29.3.1-43.95.15-3.51.01-4.21.71-4.25,4.26,0,.48.02.97.03,1.45.17,9.31.36,18.63.5,27.94.02,1.19-.02,2.46-.42,3.55-.22.61-1.26,1.3-1.89,1.26-.63-.03-1.52-.82-1.74-1.47-.34-.99-.26-2.14-.25-3.22.11-9.56.24-19.11.37-28.67q.08-5.41-5.38-5.41c-26.15,0-52.3,0-78.46,0ZM1335.44,189.39c1.64.81,2.69,1.3,3.72,1.84,3.97,2.07,7.84,4.34,11.91,6.18,13.43,6.07,27.58,5.31,41.76,4.14,22.11-4.98,38.96-16.57,47.97-38.05,4.06-9.69,6.22-19.78,6.77-30.27.56-10.85-.33-21.47-3.73-31.84-10.61-32.42-37.19-45.56-65.23-45.9-14.89-.18-28.54,4.71-40.7,13.44-1.02.74-2.08,1.42-3.84,2.62v-12.14c-5.66-.82-35.86-.57-38.32.24-.77,7.17-.18,190.54.62,193.22,4.67.64,36.07.43,39.08-.37v-63.11ZM179.36,143.97c-.47.4-.85.58-1,.87-5.52,10.66-9.99,21.74-13.1,33.35-.47,1.74.05,3.08,1.51,4.09.79.55,1.56,1.14,2.37,1.68,17.51,11.72,36.65,18.46,57.86,18.66,10.56.1,21.06-.48,31.18-3.92,18.48-6.28,30.48-18.62,35.26-37.7,1.95-7.78,2.94-15.61,2.29-23.69-1.69-21.03-11.79-36.24-31.06-44.99-6.26-2.84-12.83-5.02-19.34-7.28-7.43-2.57-15.02-4.68-22.38-7.41-3.46-1.28-6.86-3.16-9.73-5.46-4.92-3.93-5.84-9.76-3.03-15.39,2.09-4.18,5.37-7.13,9.69-8.87,5.25-2.12,10.77-3.01,16.36-2.63,14.92,1.01,28.96,5.39,42.33,11.96,4.06,1.99,5.12,1.73,5.2-2.64.22-11.36.09-22.73.1-34.1,0-2.99-1.42-4.66-4.28-5.85-15.9-6.66-32.46-9.43-49.63-8.78-10,.38-19.68,2.27-28.87,6.37-15.47,6.89-25.51,18.39-29.8,34.82-2.06,7.91-2.53,15.93-2.05,24.09,1.1,18.83,10.1,32.42,26.82,40.94,3.98,2.03,8.07,3.89,12.23,5.51,8.22,3.21,16.51,6.26,24.8,9.28,5.49,2,10.73,4.46,15.33,8.1,8.34,6.61,7.8,19.43-1.25,25.03-2.71,1.68-5.95,3.15-9.05,3.39-5.63.44-11.41.39-17-.37-13.09-1.78-24.69-7.44-35.46-14.91-2.08-1.44-4.22-2.79-6.29-4.16ZM1040.73,50.67c0,1.8,0,3.11,0,4.42.12,45.36.24,90.73.36,136.09,0,2.54-.08,5.09.07,7.62.19,3.33.81,4.06,4.16,4.2,7.98.33,15.96.56,23.94.63,3.5.03,7.01-.35,10.5-.75,2.97-.34,3.26-.76,3.41-3.61.14-2.54.31-5.07.32-7.61.1-20.81.16-41.61.25-62.42.11-24.8.24-49.6.38-74.4.03-4.72.7-5.4,5.52-5.45,12.47-.12,24.94-.16,37.41-.25,1.29,0,2.59-.14,4.03-.22.34-1.71.72-3.11.87-4.53,1.09-9.89,1.19-19.78.18-29.68-.62-6.05-.59-6.08-6.83-6.07-40.68.01-81.36.03-122.04.05-.61,0-1.21-.02-1.82,0-3.03.1-3.7.52-3.8,3.57-.28,8.45-.51,16.91-.43,25.36.04,3.81.89,7.61,1.42,11.77,1.67,0,2.97,0,4.27,0,9.69,0,19.37-.09,29.06.06,2.83.04,5.65.77,8.76,1.22ZM838.02,63.35c1.1,3.33,1.81,6.12,2.92,8.74,15.59,36.73,31.18,73.46,46.92,110.13,3.02,7.03,3.12,13.78-.01,20.68-2.77,6.08-7.33,9.45-14.17,9.45-3.75,0-7.51.06-11.26.16-1.03.03-2.06.28-3.32.47,0,9.84-.03,19.37.05,28.9,0,1.11.65,2.22,1.01,3.37,5.31,0,10.29.27,15.22-.05,19.1-1.23,33.64-9.86,42.61-27.02,2.91-5.57,5.58-11.27,8.07-17.04,7.58-17.54,15.03-35.13,22.51-52.71,10.89-25.59,21.78-51.18,32.63-76.79.97-2.28,1.68-4.66,2.73-7.6-2.85-.36-5.08-.85-7.32-.88-7.63-.1-15.25-.04-22.88-.05-8.34,0-8.39-.02-11.32,7.76-5.59,14.82-11.13,29.66-16.66,44.5-3.89,10.42-7.74,20.85-11.6,31.28-.74,2-1.73,3.68-4.58,3.9-1.22-2.92-2.54-5.75-3.61-8.67-5.81-15.77-11.53-31.57-17.33-47.34-3.38-9.19-6.91-18.32-10.27-27.52-1-2.75-2.53-3.86-5.62-3.75-7.13.27-14.29.09-21.43.09-4.11,0-8.21,0-13.28,0ZM560.7,161.4c-2.65,1.6-5.1,3.18-7.63,4.59-9.27,5.16-19.09,7.43-29.7,5.52-19.62-3.53-33.49-16.31-33.47-39.18.02-19.53,12.58-34.71,31.49-38.66,15.99-3.34,29.38,1.81,39.83,14.24,5.52,6.56,8.28,14.37,9.33,22.85.25,2,.83,4.03,1.68,5.85.42.89,1.78,1.88,2.73,1.9,7.02.13,14.04.04,21.06,0,.59,0,1.17-.29,1.77-.37,1.97-.29,3-1.28,2.9-3.39-.22-4.7.03-9.46-.62-14.09-2.42-17.17-10.01-31.7-23.22-43.08-10.98-9.46-23.96-14.3-38.24-16.03-17.36-2.1-33.5,1.22-48.15,10.85-30.53,20.07-40.96,61.63-23.59,94.11,8.84,16.53,22.05,28.07,40.19,33.38,13.11,3.84,26.49,4.14,39.89,1.53,9.49-1.85,18.37-5.23,25.99-11.4,3.11-2.52,5.83-5.38,7.84-8.78-4.1-5.74-15.37-16.89-20.08-19.84ZM425.15,180.45c-6.05-6.06-11.56-12.65-18.3-18.02-1.56-1.24-2.87-1.56-4.46-.12-.89.81-1.96,1.42-2.96,2.09-10.02,6.65-20.91,9.05-32.84,7.12-21.51-3.48-36.03-23.81-32.06-45.13,3.96-21.29,21.67-34.94,43.34-33.43,17.31,1.21,32,13.81,35.75,30.64.87,3.89,1.76,7.78,2.73,11.64.73,2.9.89,3,3.94,3.12,4.23.17,8.47.36,12.7.4,2.9.03,5.81-.09,8.7-.34,2.89-.25,3.32-.66,3.64-3.5.24-2.14.37-4.34.14-6.46-.39-3.6-1.02-7.18-1.71-10.73-4.42-22.75-16.83-39.62-37.67-49.87-13.51-6.64-28.01-8.38-42.83-6.06-22.19,3.48-39.73,14.33-50.82,34.17-10.5,18.8-12.29,38.79-5.67,59.24,6.14,18.97,18.12,33.17,36.45,41.58,14.54,6.67,29.78,7.99,45.42,5.21,11.93-2.12,22.61-6.95,31.73-15.02,2-1.77,3.83-3.66,4.78-6.54ZM1202.31,60.67c-.6-.18-1.04-.34-1.51-.44-5.64-1.27-11.34-.69-17.01-.43-8.87.4-16.74,3.51-23.62,9.13-2.62,2.14-5.3,4.23-7.99,6.28-.6.46-1.37.69-2.3,1.14-.69-4.87-1.32-9.36-2-14.21-4.4-.23-8.5-.66-12.59-.61-7.13.1-14.26.4-21.38.84-2.91.18-3.17.72-3.35,3.66-.11,1.69-.11,3.39-.1,5.08.11,39.44.23,78.89.32,118.33,0,2.9-.29,5.8-.28,8.7.01,3.41,1.05,4.61,4.03,4.9,10.88,1.08,21.76.94,32.64-.09,1.15-.11,2.26-.57,3.48-.89.17-3.93.44-7.54.47-11.16.12-15.12.24-30.24.23-45.36,0-6.8.67-13.51,1.76-20.21,2.35-14.38,10.65-20.73,22.36-23.6,5.58-1.37,11.29-1.17,16.98-.58,3.45.36,6.91.69,10.31,1.03.94-4.8.59-36.4-.45-41.53ZM192.56,311.4c.14,0,.29,0,.43,0,0-5.08,0-10.16,0-15.24,0-3.85-.27-4.13-4.08-4.21-.36,0-.73,0-1.09,0-49.77.08-99.54.15-149.31.24-3.39,0-6.78.08-10.17.16-2.12.05-4.35.36-5.55,2.17-1.85,2.79-4.1,5.68-4.74,8.83-1.71,8.42-2.46,16.99.3,25.44.3.92.71,1.8,1.04,2.71,1.69,4.8,4.88,6.98,10.16,6.97,30.51-.09,61.02.03,91.52.07,7.63.01,15.26-.04,22.89.04,1.53.02,3.29.1,4.54.84,5.05,3.01,10.1,2.73,15.17.38,2.07-.96,3.95-1.09,5.82.19,2.02,1.39,4.29,1.36,6.6,1.53,3.67.27,6.83-1.15,10.12-2.37,1.44-.53,3.3-.14,4.58-.86,1.32-.74,2.1-2.39,3.22-3.53,1.49-1.51,1.76-2.14.25-3.54-1.54-1.43-1.73-3.04-1.71-4.91.04-4.96.01-9.92.01-14.88ZM467.09,291.94v.23c-23.6,0-47.21,0-70.81,0-3.15,0-6.29.13-9.44.13-3.47,0-5.92,1.51-7.7,4.52-2.27,3.83-3.73,7.79-3.57,12.31.15,4.11.05,8.22.13,12.33.03,1.57.13,3.16.44,4.68.39,1.88.96,3.73,1.58,5.54,1.62,4.68,4.81,6.77,9.92,6.74,23.6-.13,47.19-.07,70.79-.04,14.65.01,29.29.1,43.94.11,2.12,0,4.04.35,5.78,1.69.73.56,1.75,1.02,2.64,1.04,3.82.06,7.75.83,11.29-1.48,1.81-1.19,3.61-.89,5.49.08,1.36.7,2.89,1.39,4.38,1.5,3.61.27,7.26.41,10.6-1.52.82-.48,1.79-.85,2.73-.94,2.66-.26,5.36-.28,6.2-3.64.06-.26.58-.4.88-.6,1.51-.99,1.45-2.36.26-3.31-1.92-1.54-1.87-3.49-1.84-5.57.15-9.31.29-18.62.42-27.94q.08-5.87-5.66-5.87c-26.15,0-52.29,0-78.44,0ZM825.23,291.94v.2c-20.58,0-41.15-.01-61.73,0-6.05,0-12.1.11-18.15.17-2.36.02-4.72.32-6.27,2.27-2.34,2.93-4.72,6.08-4.85,9.93-.24,7.11-.14,14.25.11,21.36.07,2.1,1.01,4.2,1.76,6.23,1.61,4.35,4.68,6.34,9.47,6.32,23.72-.1,47.43-.05,71.15-.03,14.28.01,28.57.1,42.85.1,2.6,0,5.06.15,7.16,1.95.51.44,1.32.75,2,.76,3.82.03,7.75.97,11.3-1.34,2.07-1.34,4.02-.85,6.16.13,1.8.82,3.87,1.18,5.86,1.43,3.72.47,7.1-.88,10.48-2.25,1.41-.57,3.29-.15,4.57-.87,1.32-.74,2.16-2.31,3.22-3.51.08-.09.21-.11.31-.18,1.49-1.04,1.34-2.37.16-3.33-1.77-1.43-1.85-3.23-1.81-5.22.17-9.55.3-19.11.43-28.66q.08-5.44-5.37-5.45c-26.27,0-52.53,0-78.8,0ZM1003.73,291.94c0,.05,0,.1,0,.15-5.33,0-10.65-.01-15.98,0-21.19.07-42.37.19-63.56.17-4.23,0-7.33,1.54-9.01,5.39-.9,2.07-1.69,4.32-1.85,6.54-.29,3.97-.12,7.98-.05,11.97.07,4.35.04,8.72.41,13.05.42,4.81,3.65,9.27,9.64,9.23,23.6-.17,47.2-.07,70.8-.05,15.01.02,30.02.07,45.04.16,1.29,0,2.79.12,3.84.76,5.15,3.14,10.31,2.81,15.51.37,1.95-.92,3.72-.96,5.49.22,2.13,1.41,4.51,1.47,6.96,1.59,3.53.18,6.6-1.11,9.76-2.33,1.43-.55,3.29-.16,4.57-.87,1.32-.74,2-2.55,3.28-3.45,1.72-1.22,1.56-2.5.34-3.57-1.82-1.61-1.77-3.56-1.73-5.64.16-9.43.3-18.87.42-28.3.07-5.38.05-5.38-5.42-5.38-26.15,0-52.3,0-78.45,0ZM645.62,291.94c0,.06,0,.13,0,.19-19.98,0-39.95-.02-59.93,0-6.78,0-13.56.16-20.34.16-3.61,0-6.21,1.47-8.03,4.61-1.5,2.59-2.36,5.3-2.32,8.27.09,7.38.11,14.76.36,22.13.27,8.08,3.43,11.05,11.48,11.06,29.9.06,59.79.1,89.69.14,7.99.01,15.98-.04,23.97.04,1.52.02,3.25.18,4.52.9,4.94,2.82,9.89,2.7,14.85.39,2.18-1.02,4.15-1.19,6.16.15,1.91,1.28,4.04,1.47,6.25,1.45,3.04-.03,6.04-.13,8.77-1.77.71-.43,1.57-.77,2.38-.84,2.69-.21,5.34-.34,6.21-3.63.05-.17.37-.3.59-.4,1.87-.91,1.77-2.37.53-3.49-1.78-1.61-1.83-3.53-1.79-5.62.17-9.43.3-18.87.43-28.3.07-5.47.05-5.48-5.32-5.48-26.15,0-52.3,0-78.45,0ZM287,291.94c0,.06,0,.13,0,.19-19.85,0-39.71-.02-59.56,0-6.78,0-13.56.16-20.34.16-3.62,0-6.22,1.48-8,4.65-1.46,2.59-2.37,5.29-2.33,8.27.1,7.38.12,14.76.37,22.13.27,8.03,3.46,11,11.52,11.02,29.77.06,59.55.1,89.32.14,7.99.01,15.98-.05,23.97.04,1.64.02,3.5.16,4.88.93,4.96,2.79,9.9,2.67,14.86.35,2.19-1.03,4.16-1.15,6.16.19,1.91,1.28,4.06,1.32,6.26,1.46,3.64.24,6.86-.98,10.13-2.31,1.41-.57,3.28-.17,4.57-.88,1.32-.74,2.01-2.54,3.29-3.43,1.7-1.18,1.65-2.46.43-3.56-1.8-1.61-1.8-3.54-1.77-5.63.16-9.43.3-18.87.43-28.3.07-5.43.05-5.44-5.36-5.44-26.27,0-52.54,0-78.81,0ZM1217.8,149.52c.27,1.1.62,1.89.64,2.7.14,4.96.36,9.92.21,14.87-.04,1.38-1.02,2.95-2,4.03-3.09,3.4-6.4,6.61-9.6,9.91-.67.69-1.39,1.41-1.8,2.25-.86,1.75.05,3.13,1.98,3.14.72,0,1.45-.11,2.16-.24,4.4-.8,8.77-1.82,13.21-2.38,3.45-.43,7.01-.67,10.45-.3,5.28.57,10.49,1.72,15.73,2.67,1.66.3,3.18.32,4.1-1.39.89-1.66-.59-2.41-1.45-3.31-3.19-3.31-6.41-6.59-9.68-9.83-1.62-1.61-2.71-3.4-2.63-5.75.16-4.35.26-8.71.54-13.05.2-3.11.67-3.4,3.89-3.08,10.23,1.03,20.46,2.08,30.68,3.11,3.13.32,6.26.69,9.39.87,1.75.1,3.48-.37,4.23-2.18.7-1.67.42-3.4-.76-4.78-.69-.8-1.64-1.43-2.58-1.94-2.56-1.37-5.18-2.63-7.77-3.94-11.24-5.65-22.45-11.37-33.74-16.92-2.53-1.24-3.6-2.86-3.47-5.65.13-2.77.03-5.57-.19-8.34-.59-7.46-1.19-14.93-2.04-22.37-.21-1.84-1.08-3.75-2.12-5.31-3.25-4.85-9.07-4.81-12.26.04-.91,1.39-1.69,3-2.01,4.62-.67,3.3-1.19,6.67-1.41,10.03-.46,7.24-.73,14.49-1,21.74-.1,2.53-1.07,4.14-3.46,5.33-13.43,6.69-26.78,13.54-40.16,20.32-1.29.66-2.62,1.24-3.92,1.89-1.7.85-2.13,2.36-1.58,3.99.9,2.61,1.9,3.82,5.06,3.48,10.58-1.15,21.17-2.22,31.76-3.27,3.82-.38,7.66-.65,11.6-.97ZM374.11,145.97c7.32-.06,13.72-6.37,13.57-13.37-.16-7.38-6.7-13.58-14.33-13.57-7.44,0-13.44,6.05-13.36,13.43.08,7.06,7.99,13.96,14.12,13.51ZM542.73,132.03c-.09-.47-.28-1.65-.52-2.82-.81-3.78-3.78-5.78-6.63-7.8-4.26-3.01-8.78-3.24-13.31-.62-4.61,2.67-6.8,6.94-6.69,12.08.15,7.21,6.55,12.82,14.1,12.85,7.04.02,12.72-5.63,13.06-13.69Z"/>
  <path d="M628.71,26.25c1.23-.14,1.94-.3,2.65-.3,9.44-.02,18.89.06,28.33-.07,2.28-.03,3.45.91,4.55,2.75,10.3,17.24,20.69,34.42,31.05,51.63,10.48,17.41,20.95,34.83,31.44,52.24.67,1.11,1.43,2.17,2.41,3.66.99-1.51,1.75-2.57,2.41-3.69,20.27-34.25,40.56-68.48,60.74-102.79,1.58-2.69,3.2-3.95,6.5-3.85,8.35.27,16.71.08,25.06.1,1.29,0,2.58.12,4.14.2v175.76c-2.76.91-32,1.17-37.13.29-.33-17.26-.2-34.63-.36-51.99-.17-17.4-.31-34.81-.47-52.48-1.74.48-2.08,1.87-2.7,2.89-11.2,18.67-22.37,37.36-33.55,56.05-4.84,8.1-9.76,16.15-14.49,24.31-1.26,2.17-2.75,3.05-5.23,2.94-3.63-.16-7.27-.2-10.89.01-2.8.17-4.38-.92-5.8-3.29-9.17-15.23-18.49-30.38-27.77-45.55-6.43-10.53-12.87-21.06-19.31-31.58-.75-1.22-1.58-2.39-2.76-3.52-.79,4.15-.5,8.29-.56,12.4-.06,4.35-.02,8.71-.03,13.07,0,4.23-.01,8.47-.02,12.7s-.01,8.47-.02,12.7-.01,8.47-.02,12.7c0,4.36-.01,8.71-.02,13.07,0,4.23-.02,8.47-.02,12.7,0,4.21,0,8.42,0,12.5-3.28,1.06-33.7,1.14-37.63.06-.53-58.34-.39-116.83-.51-175.64Z"/>
  <path d="M1183.74,291.94c26.15,0,52.3,0,78.46,0q5.47,0,5.38,5.41c-.13,9.56-.26,19.11-.37,28.67-.01,1.08-.09,2.23.25,3.22.22.65,1.11,1.44,1.74,1.47.63.03,1.67-.66,1.89-1.26.4-1.09.43-2.36.42-3.55-.14-9.31-.32-18.63-.5-27.94,0-.48-.03-.97-.03-1.45.04-3.55.74-4.25,4.25-4.26,14.65-.05,29.3-.12,43.95-.15,37.77-.06,75.55-.11,113.32-.16.85,0,1.7-.03,2.54,0,3.3.12,3.68.48,3.65,3.9-.08,10.04-.21,20.08-.31,30.12-.01,1.08-.21,2.31.22,3.2.39.81,1.47,1.58,2.37,1.77,1.18.25,2.05-.66,2.22-1.89.15-1.07.14-2.17.13-3.25-.08-9.8-.18-19.6-.26-29.4-.04-4.35.06-4.46,4.45-4.46,32.45,0,64.9.01,97.34-.01,7.87,0,15.73-.22,23.6-.24,5.7-.01,11.31.56,16.84,2.22,5.49,1.65,10.56,4.05,15.32,7.19,10.98,7.26,21.97,14.5,32.92,21.8,1.9,1.27,3.79,2.63,5.41,4.23,3.65,3.58,3.25,6.88-1.18,9.34-1.74.96-3.79,1.48-5.76,1.84-1.76.32-3.62.2-5.43.2-8.35.01-16.71.08-25.06-.04-3.1-.04-5.9.67-8.78,1.77-4.62,1.77-9.42,2.11-13.93-.49-2.02-1.16-3.74-1.19-5.78-.11-4.9,2.6-9.83,2.59-14.82,0-1.33-.69-2.99-1.08-4.5-1.09-16.95-.07-33.9-.11-50.85.04-2.33.02-4.65,1.11-6.97,1.75-4.88,1.35-9.7,2.05-14.25-1.04-1.27-.86-2.53-.76-3.72.06-3.69,2.54-7.87,1.96-11.95,1.86-1.01-.03-2.15-.5-2.96-1.11-1.77-1.32-3.7-1.66-5.81-1.64-3.51.04-7.02,0-10.53,0-1.55,0-2.9-.23-3.23-2.14-.23-1.3-1.21-1.7-2.42-1.71-1.31,0-2.47.3-2.82,1.74-.43,1.82-1.78,1.96-3.3,2.19-1.77.27-3.57.7-5.23,1.36-5.07,2.02-10.08,2.34-15-.29-1.8-.96-3.51-.96-5.15.1-3.55,2.31-7.48,1.45-11.3,1.44-.69,0-1.51-.24-2.03-.67-2.44-2.04-5.31-2.03-8.25-2.03-12.95,0-25.91-.09-38.86-.1-23.96-.02-47.93,0-71.89,0-2.27,0-4.46.34-5.62-2.64-.71-1.81-3.55-1.48-4.26.49-.69,1.92-1.9,2.16-3.56,2.37-1.66.21-3.35.59-4.89,1.23-5.17,2.15-10.28,2.53-15.33-.21-1.83-.99-3.53-.85-5.15.18-3.57,2.27-7.49,1.41-11.31,1.39-.79,0-1.71-.38-2.32-.89-1.92-1.59-4.12-1.81-6.48-1.81-14.29,0-28.57-.09-42.86-.1-23.36-.02-46.72-.11-70.08.05-7.3.05-9.83-1.49-12.43-10.33-.6-2.05-.69-4.3-.76-6.46-.14-4.11,0-8.23-.15-12.34-.15-4.51,1.2-8.5,3.48-12.34,1.86-3.13,4.37-4.66,7.99-4.66,6.05,0,12.11-.14,18.16-.15,20.7-.02,41.41,0,62.11,0v-.2ZM1508.66,314.7c-.02-.48-.03-.96-.07-1.44-.26-3.86-1.01-4.6-4.87-4.63-3.63-.03-7.27.09-10.9-.02-6.51-.2-7.58-.02-7.54,8.05,0,.12.01.24.02.36.06,1.58.8,2.59,2.44,2.51,6.85-.33,13.77.99,20.57-.77.44-.11.96-.07,1.41.02,6.71,1.39,13.5.33,20.24.58,1.7.06,2.33-1.02,2.31-2.58-.02-1.69.04-3.39-.11-5.08-.22-2.6-.71-3.03-3.44-3.06-4.24-.05-8.47,0-12.71,0q-6.36,0-7.36,6.07ZM1340.61,308.47v.16c-3.01,0-6.03-.08-9.04.02-2.33.08-3.13.77-3.36,2.93-.19,1.79-.16,3.61-.07,5.41.09,1.83,1.14,2.94,3.01,2.92,6.15-.07,12.29-.21,18.44-.32,1.86-.03,2.53-1.07,2.49-2.8-.04-1.81.03-3.62-.08-5.42-.15-2.53-.54-2.87-3.06-2.9-2.77-.03-5.55,0-8.32,0ZM1169.68,308.47v.13c-2.05,0-4.1,0-6.16,0-6.26.02-7.03.83-6.7,7.11,0,.12,0,.24.01.36.24,2.97,1.03,3.82,4.07,3.87,4.1.07,8.22.17,12.31-.07,8.99-.52,7.71.95,7.64-8.67-.01-2.32-.52-2.68-2.85-2.72-2.77-.05-5.55-.01-8.33-.01ZM1143.99,319.89v.03c1.81,0,3.63-.03,5.44,0,6.82.13,6.94-1.02,6.48-7.55-.17-2.45-1.23-3.46-3.77-3.52-5.44-.14-10.89-.14-16.33-.06-2.36.03-3.04.74-3.29,3-.17,1.56-.22,3.14-.16,4.71.1,2.5.76,3.24,3.27,3.37,2.78.14,5.56.03,8.35.03ZM1315.16,319.88h0c2.65.01,5.31.11,7.96-.01,3.13-.15,3.79-.99,3.85-4.38.1-5.11-.51-6.51-3.54-6.62-5.66-.19-11.34-.1-17.01-.08-1.72,0-2.69,1.04-2.82,2.7-.13,1.68-.18,3.38-.1,5.06.12,2.49.73,3.16,3.33,3.29,2.77.14,5.55.03,8.32.03ZM1193.85,319.57h0c1.69.01,3.39.02,5.08.01,6.67,0,6.94-.28,6.48-6.99-.22-3.18-.96-3.91-4.3-3.96-3.63-.05-7.26-.04-10.88,0-8.31.1-7.54-1.45-7.69,8.29-.03,1.81.78,2.67,2.6,2.65,2.9-.03,5.81,0,8.71,0ZM1364.68,319.58c2.3,0,4.59.01,6.89,0,4.73-.03,5-.31,4.88-4.88-.02-.72,0-1.45-.05-2.17-.19-3.08-.87-3.84-3.97-3.88-5.08-.07-10.16-.06-15.23,0-3.09.03-3.41.44-3.55,3.66-.02.48,0,.97-.01,1.45q-.06,5.83,5.6,5.84c1.81,0,3.63,0,5.44,0ZM1389.2,319.39v-.02c2.9,0,5.8,0,8.7,0,1.45,0,2.28-.71,2.28-2.19,0-2.05,0-4.1-.09-6.15-.06-1.57-.9-2.4-2.55-2.39-5.56.02-11.12.01-16.67,0-1.77,0-2.67.91-2.78,2.64-.1,1.69-.27,3.38-.24,5.06.04,2.42.55,2.95,3.02,3.04,2.78.09,5.56.02,8.34.02ZM1218.14,319.39v-.02c2.9,0,5.8,0,8.69,0,1.47,0,2.25-.7,2.23-2.2-.03-2.05-.03-4.1-.11-6.15-.06-1.59-.9-2.4-2.54-2.4-5.56.01-11.11,0-16.67,0-1.75,0-2.72.88-2.82,2.61-.1,1.69-.16,3.38-.11,5.06.08,2.47.55,2.99,2.98,3.08,2.77.1,5.55.02,8.33.02ZM1630.9,323.55c-.59-.55-1.12-1.16-1.76-1.61-12.06-8.52-24.69-16.07-38.18-22.12-1.28-.57-2.7-1.6-4.56-.88,1.13,2.88,3.29,4.67,5.59,6.11,6.44,4.02,12.88,8.06,19.55,11.67,5.29,2.86,10.91,5.12,16.39,7.62,1.04.47,2.08.61,2.97-.79ZM1543.94,319.56v-.02c2.41,0,4.83.1,7.23-.03,2.59-.14,3.69-1.28,3.87-3.83.09-1.19.06-2.43-.16-3.6-.36-1.97-1.71-3.32-3.7-3.37-4.94-.12-9.88-.05-14.83-.03-1.81,0-2.58,1.07-2.63,2.76-.05,1.69-.12,3.38-.06,5.06.08,2.4.57,2.92,3.04,3.03,2.41.11,4.82.02,7.23.02ZM1411.72,319.55v.02c2.29,0,4.59.07,6.87-.02,3.23-.12,4.22-1.17,4.36-4.45.04-.84.03-1.69-.05-2.53-.25-2.48-1.42-3.8-3.91-3.86-4.82-.13-9.65-.04-14.47-.04-1.85,0-2.56,1.07-2.6,2.76-.04,1.81-.04,3.62-.09,5.42-.04,1.81.89,2.68,2.64,2.7,2.41.03,4.82,0,7.24,0ZM1240.78,319.55v.02c2.29,0,4.59.07,6.87-.02,3.02-.12,4.05-1.19,4.26-4.2.04-.6.02-1.21,0-1.81-.14-3.57-1.3-4.8-4.8-4.89-2.89-.07-5.79-.04-8.68-.02-8.14.07-7.6-1.19-7.6,7.95,0,2.3.49,2.81,2.73,2.93,2.4.13,4.82.03,7.23.03ZM1474.14,319.56c2.42,0,4.84,0,7.25,0,1.79,0,2.69-.86,2.65-2.66-.04-1.69-.02-3.39-.16-5.07-.22-2.69-.64-3.13-3.33-3.18-3.75-.08-7.5-.03-11.24-.02-5.6.02-6.31,2.95-6.02,7.65.14,2.24,1.29,3.15,3.59,3.24,2.41.1,4.84.02,7.25.03Z"/>
  <path d="M1335.44,189.39v63.11c-3.01.8-34.41,1.01-39.08.37-.81-2.68-1.4-186.05-.62-193.22,2.46-.82,32.66-1.07,38.32-.24v12.14c1.76-1.2,2.82-1.88,3.84-2.62,12.16-8.73,25.81-13.62,40.7-13.44,28.03.34,54.62,13.48,65.23,45.9,3.4,10.38,4.3,21,3.73,31.84-.55,10.49-2.7,20.58-6.77,30.27-9,21.49-25.86,33.07-47.97,38.05-14.17,1.17-28.33,1.93-41.76-4.14-4.07-1.84-7.94-4.12-11.91-6.18-1.03-.54-2.08-1.03-3.72-1.84ZM1373.77,164.32c2.16-.22,4.32-.39,6.47-.68,13.64-1.83,24.9-12,28.03-25.33.47-1.99.83-4.02,1.08-6.05,1.68-13.78-2.68-25.17-13.5-34.04-5.88-4.82-12.86-6.61-20.16-7.23-9.48-.82-18.65,0-26.07,7.03-.35.33-.75.6-1.14.9-11.53,8.91-14.61,21.28-12.42,34.66,3.05,18.6,18.55,30.57,37.69,30.75Z"/>
  <path d="M179.36,143.97c2.08,1.37,4.22,2.72,6.29,4.16,10.78,7.46,22.37,13.13,35.46,14.91,5.59.76,11.37.8,17,.37,3.1-.24,6.35-1.71,9.05-3.39,9.05-5.6,9.59-18.42,1.25-25.03-4.6-3.65-9.84-6.1-15.33-8.1-8.29-3.02-16.58-6.07-24.8-9.28-4.16-1.63-8.25-3.48-12.23-5.51-16.72-8.52-25.72-22.11-26.82-40.94-.48-8.15-.01-16.18,2.05-24.09,4.29-16.42,14.33-27.93,29.8-34.82,9.2-4.09,18.87-5.99,28.87-6.37,17.17-.65,33.72,2.13,49.63,8.78,2.85,1.19,4.28,2.86,4.28,5.85,0,11.37.12,22.73-.1,34.1-.08,4.37-1.15,4.64-5.2,2.64-13.37-6.57-27.4-10.95-42.33-11.96-5.59-.38-11.11.51-16.36,2.63-4.32,1.75-7.6,4.7-9.69,8.87-2.81,5.63-1.89,11.46,3.03,15.39,2.88,2.3,6.28,4.18,9.73,5.46,7.36,2.73,14.95,4.84,22.38,7.41,6.51,2.26,13.08,4.43,19.34,7.28,19.28,8.75,29.38,23.96,31.06,44.99.65,8.07-.34,15.91-2.29,23.69-4.78,19.08-16.78,31.42-35.26,37.7-10.12,3.44-20.62,4.02-31.18,3.92-21.22-.2-40.35-6.94-57.86-18.66-.8-.54-1.57-1.13-2.37-1.68-1.46-1.01-1.98-2.35-1.51-4.09,3.11-11.61,7.58-22.68,13.1-33.35.15-.29.53-.47,1-.87Z"/>
  <path d="M1040.73,50.67c-3.11-.45-5.93-1.18-8.76-1.22-9.68-.15-19.37-.06-29.06-.06-1.3,0-2.61,0-4.27,0-.53-4.16-1.38-7.96-1.42-11.77-.09-8.45.15-16.91.43-25.36.1-3.05.78-3.46,3.8-3.57.6-.02,1.21,0,1.82,0,40.68-.02,81.36-.04,122.04-.05,6.23,0,6.21.03,6.83,6.07,1.01,9.9.91,19.8-.18,29.68-.16,1.42-.54,2.81-.87,4.53-1.44.08-2.73.21-4.03.22-12.47.09-24.94.13-37.41.25-4.82.05-5.49.73-5.52,5.45-.14,24.8-.27,49.6-.38,74.4-.09,20.81-.15,41.61-.25,62.42-.01,2.54-.19,5.07-.32,7.61-.16,2.85-.44,3.27-3.41,3.61-3.48.4-7,.78-10.5.75-7.98-.06-15.97-.3-23.94-.63-3.35-.14-3.98-.88-4.16-4.2-.14-2.53-.06-5.08-.07-7.62-.12-45.36-.24-90.73-.36-136.09,0-1.31,0-2.62,0-4.42Z"/>
  <path d="M838.02,63.35c5.07,0,9.17,0,13.28,0,7.14,0,14.3.18,21.43-.09,3.1-.12,4.62,1,5.62,3.75,3.36,9.2,6.89,18.33,10.27,27.52,5.8,15.77,11.53,31.57,17.33,47.34,1.07,2.92,2.39,5.75,3.61,8.67,2.85-.22,3.84-1.9,4.58-3.9,3.86-10.43,7.72-20.86,11.6-31.28,5.54-14.84,11.07-29.68,16.66-44.5,2.93-7.77,2.98-7.76,11.32-7.76,7.63,0,15.26-.06,22.88.05,2.23.03,4.46.52,7.32.88-1.05,2.94-1.77,5.32-2.73,7.6-10.85,25.61-21.74,51.2-32.63,76.79-7.48,17.58-14.93,35.17-22.51,52.71-2.49,5.77-5.17,11.47-8.07,17.04-8.97,17.17-23.51,25.8-42.61,27.02-4.93.32-9.91.05-15.22.05-.36-1.15-1-2.26-1.01-3.37-.08-9.53-.05-19.06-.05-28.9,1.26-.18,2.29-.44,3.32-.47,3.75-.1,7.51-.16,11.26-.16,6.84,0,11.4-3.36,14.17-9.45,3.13-6.89,3.03-13.65.01-20.68-15.74-36.66-31.33-73.4-46.92-110.13-1.11-2.62-1.82-5.41-2.92-8.74Z"/>
  <path d="M560.7,161.4c4.71,2.95,15.99,14.09,20.08,19.84-2.01,3.4-4.73,6.26-7.84,8.78-7.62,6.17-16.5,9.55-25.99,11.4-13.4,2.61-26.78,2.31-39.89-1.53-18.14-5.31-31.35-16.86-40.19-33.38-17.37-32.48-6.94-74.03,23.59-94.11,14.65-9.63,30.8-12.95,48.15-10.85,14.28,1.73,27.25,6.57,38.24,16.03,13.21,11.38,20.81,25.91,23.22,43.08.65,4.63.4,9.39.62,14.09.1,2.11-.93,3.11-2.9,3.39-.6.09-1.18.37-1.77.37-7.02.05-14.04.14-21.06,0-.95-.02-2.32-1.01-2.73-1.9-.85-1.82-1.43-3.85-1.68-5.85-1.05-8.48-3.82-16.29-9.33-22.85-10.46-12.43-23.84-17.58-39.83-14.24-18.91,3.95-31.47,19.13-31.49,38.66-.02,22.87,13.85,35.64,33.47,39.18,10.61,1.91,20.42-.36,29.7-5.52,2.53-1.41,4.97-2.99,7.63-4.59Z"/>
  <path d="M425.15,180.45c-.95,2.88-2.78,4.77-4.78,6.54-9.13,8.07-19.81,12.9-31.73,15.02-15.64,2.78-30.88,1.46-45.42-5.21-18.33-8.4-30.31-22.61-36.45-41.58-6.62-20.45-4.82-40.44,5.67-59.24,11.08-19.85,28.63-30.7,50.82-34.17,14.83-2.32,29.32-.58,42.83,6.06,20.84,10.24,33.25,27.12,37.67,49.87.69,3.56,1.32,7.13,1.71,10.73.23,2.13.1,4.33-.14,6.46-.32,2.83-.75,3.24-3.64,3.5-2.89.25-5.8.37-8.7.34-4.24-.04-8.47-.23-12.7-.4-3.05-.12-3.21-.22-3.94-3.12-.97-3.87-1.86-7.75-2.73-11.64-3.75-16.83-18.44-29.43-35.75-30.64-21.68-1.52-39.38,12.14-43.34,33.43-3.97,21.32,10.56,41.65,32.06,45.13,11.94,1.93,22.83-.47,32.84-7.12,1.01-.67,2.07-1.28,2.96-2.09,1.58-1.44,2.9-1.12,4.46.12,6.75,5.37,12.26,11.96,18.3,18.02Z"/>
  <path d="M1202.31,60.67c1.04,5.13,1.39,36.74.45,41.53-3.41-.34-6.86-.67-10.31-1.03-5.69-.6-11.39-.79-16.98.58-11.71,2.87-20.01,9.22-22.36,23.6-1.09,6.7-1.76,13.41-1.76,20.21,0,15.12-.11,30.24-.23,45.36-.03,3.61-.3,7.23-.47,11.16-1.22.32-2.33.78-3.48.89-10.87,1.03-21.76,1.17-32.64.09-2.99-.3-4.02-1.5-4.03-4.9-.01-2.9.29-5.8.28-8.7-.09-39.44-.21-78.89-.32-118.33,0-1.69,0-3.39.1-5.08.19-2.94.44-3.47,3.35-3.66,7.12-.45,14.25-.74,21.38-.84,4.09-.06,8.18.38,12.59.61.68,4.84,1.32,9.34,2,14.21.93-.45,1.71-.68,2.3-1.14,2.69-2.06,5.37-4.14,7.99-6.28,6.88-5.62,14.75-8.73,23.62-9.13,5.67-.26,11.37-.84,17.01.43.46.1.91.26,1.51.44Z"/>
  <path d="M192.56,311.4c0,4.96.03,9.92-.01,14.88-.02,1.87.17,3.47,1.71,4.91,1.51,1.41,1.24,2.03-.25,3.54-1.13,1.14-1.91,2.79-3.22,3.53-1.28.72-3.14.32-4.58.86-3.29,1.22-6.46,2.64-10.12,2.37-2.31-.17-4.58-.14-6.6-1.53-1.87-1.28-3.75-1.15-5.82-.19-5.07,2.35-10.12,2.62-15.17-.38-1.25-.74-3.01-.82-4.54-.84-7.63-.08-15.26-.03-22.89-.04-30.51-.04-61.02-.16-91.52-.07-5.28.02-8.47-2.17-10.16-6.97-.32-.91-.74-1.79-1.04-2.71-2.75-8.44-2-17.01-.3-25.44.64-3.14,2.88-6.04,4.74-8.83,1.2-1.81,3.44-2.13,5.55-2.17,3.39-.07,6.78-.15,10.17-.16,49.77-.09,99.54-.16,149.31-.24.36,0,.73,0,1.09,0,3.81.08,4.08.36,4.08,4.21,0,5.08,0,10.16,0,15.24-.14,0-.29,0-.43,0ZM94.93,308.47c0,.06,0,.11,0,.17-3.14,0-6.28-.11-9.41.03-2.59.12-3.23,1.29-3.34,5.34-.11,4.3.52,5.82,3.09,5.85,6.27.07,12.54-.17,18.82-.3,1.48-.03,2.18-.87,2.18-2.31,0-2.05.06-4.11-.06-6.15-.14-2.28-.52-2.59-2.95-2.62-2.78-.04-5.55,0-8.33,0ZM69.44,319.92s0,0,0,0c1.81,0,3.63-.03,5.44,0,7.04.14,6.63-1.41,6.43-7.3,0-.12-.01-.24-.03-.36-.37-2.27-1.22-3.33-3.53-3.39-5.68-.15-11.37-.1-17.05-.07-1.72,0-2.67,1.03-2.8,2.72-.11,1.44-.18,2.9-.18,4.35,0,3.19.6,3.9,3.73,4.02,2.66.1,5.32.02,7.98.02ZM119.12,319.57s0,0,0,0c2.78,0,5.57.08,8.34-.02,2.71-.11,3.25-.78,3.35-3.6.2-5.67-.34-7.15-3.19-7.23-5.68-.17-11.36-.05-17.05-.06-1.87,0-2.56,1.06-2.59,2.76-.03,1.81-.12,3.63-.07,5.44.07,2.29.42,2.64,2.86,2.72,2.78.08,5.56.02,8.34.02ZM143.51,319.39s0-.01,0-.02c2.9,0,5.8,0,8.69,0,1.48,0,2.25-.73,2.23-2.22-.02-2.05-.04-4.1-.12-6.15-.06-1.59-.92-2.39-2.55-2.38-5.56.02-11.11,0-16.67,0-1.76,0-2.71.9-2.81,2.62-.1,1.69-.17,3.38-.11,5.06.08,2.47.55,2.98,3,3.06,2.77.1,5.55.02,8.33.02ZM166.37,319.56s0,0,0,0c2.17,0,4.34.06,6.51-.01,3.19-.11,4.24-1.21,4.39-4.44.04-.84.03-1.69-.05-2.53-.26-2.48-1.44-3.82-3.9-3.89-4.82-.13-9.65-.03-14.47-.04-1.83,0-2.59,1.02-2.63,2.73-.03,1.69-.1,3.38-.05,5.06.08,2.49.49,2.97,2.96,3.08,2.41.11,4.82.02,7.23.02Z"/>
  <path d="M467.09,291.94c26.15,0,52.29,0,78.44,0q5.73,0,5.66,5.87c-.13,9.31-.26,18.62-.42,27.94-.03,2.08-.08,4.04,1.84,5.57,1.19.95,1.25,2.32-.26,3.31-.3.2-.82.34-.88.6-.84,3.35-3.54,3.38-6.2,3.64-.94.09-1.91.46-2.73.94-3.34,1.94-6.99,1.79-10.6,1.52-1.5-.11-3.02-.79-4.38-1.5-1.88-.97-3.68-1.27-5.49-.08-3.53,2.32-7.47,1.54-11.29,1.48-.9-.01-1.92-.47-2.64-1.04-1.74-1.34-3.66-1.69-5.78-1.69-14.65-.01-29.29-.09-43.94-.11-23.6-.02-47.19-.09-70.79.04-5.1.03-8.3-2.05-9.92-6.74-.63-1.81-1.2-3.67-1.58-5.54-.31-1.53-.41-3.12-.44-4.68-.08-4.11.02-8.23-.13-12.33-.16-4.53,1.3-8.49,3.57-12.31,1.78-3,4.23-4.52,7.7-4.52,3.15,0,6.29-.13,9.44-.13,23.6-.01,47.21,0,70.81,0v-.23ZM452.41,319.96v-.05c1.45,0,2.9.08,4.34-.01,9.06-.57,7.69.7,7.69-8.3,0-2.77-.45-3.11-3.2-3.11-4.71,0-9.41.09-14.12.11-6.28.03-7.05.83-6.73,7.09.01.24,0,.48.04.72.3,2.57,1.07,3.42,3.66,3.52,2.77.11,5.55.02,8.33.02ZM427.49,319.91h0c2.06.01,4.11.03,6.17,0,5.57-.05,6.23-.77,5.93-6.39-.2-3.7-1.12-4.66-4.88-4.74-3.87-.08-7.74,0-11.62-.05-7.06-.1-7.05-.21-7.15,7.32-.04,2.96.66,3.69,3.57,3.82,2.66.12,5.32.02,7.98.02ZM477.32,319.57h0c1.69,0,3.39-.02,5.08.01,7.09.12,6.75-.19,6.57-7.26,0-.24-.02-.48-.05-.72-.2-1.83-1.2-2.92-3.06-2.94-5.68-.05-11.37-.01-17.05-.03-1.86,0-2.58,1.04-2.61,2.74-.03,1.81-.12,3.63-.06,5.44.07,2.31.4,2.66,2.84,2.73,2.78.08,5.56.02,8.34.02ZM512.48,319.41c0-3.42.07-6.16-.03-8.89-.05-1.28-.99-1.87-2.24-1.88-5.68,0-11.35,0-17.03,0-1.81,0-2.59,1.08-2.7,2.74-.08,1.32-.1,2.65-.1,3.98,0,3.62.33,4,3.87,4.04,4.35.05,8.7.01,13.04.02,1.55,0,3.1,0,5.18,0ZM524.55,319.56v.02c2.05,0,4.1,0,6.15,0,.24,0,.48,0,.72-.02,2.8-.21,3.83-1.21,4.05-4.04.07-.96.06-1.93-.04-2.89-.24-2.48-1.43-3.85-3.87-3.92-4.82-.13-9.65-.04-14.47-.04-1.81,0-2.62.97-2.66,2.69-.04,1.69-.1,3.38-.06,5.06.07,2.5.5,3,2.93,3.12,2.41.12,4.82.03,7.23.03Z"/>
  <path d="M825.23,291.94c26.27,0,52.53,0,78.8,0q5.43,0,5.37,5.45c-.13,9.55-.26,19.11-.43,28.66-.03,1.98.04,3.79,1.81,5.22,1.18.96,1.33,2.28-.16,3.33-.1.07-.24.1-.31.18-1.06,1.2-1.9,2.78-3.22,3.51-1.28.72-3.16.3-4.57.87-3.39,1.38-6.76,2.72-10.48,2.25-1.99-.25-4.06-.61-5.86-1.43-2.15-.98-4.1-1.47-6.16-.13-3.55,2.31-7.49,1.38-11.3,1.34-.68,0-1.48-.32-2-.76-2.1-1.8-4.56-1.95-7.16-1.95-14.28,0-28.57-.09-42.85-.1-23.72-.02-47.43-.07-71.15.03-4.78.02-7.86-1.97-9.47-6.32-.75-2.03-1.68-4.13-1.76-6.23-.25-7.11-.35-14.25-.11-21.36.13-3.85,2.51-6.99,4.85-9.93,1.55-1.95,3.91-2.25,6.27-2.27,6.05-.05,12.1-.16,18.15-.17,20.58-.02,41.15,0,61.73,0v-.2ZM810.75,319.97s0,.06,0,.08c3.13-.15,6.26-.34,9.4-.44,1.82-.06,2.63-.92,2.58-2.71-.04-1.57,0-3.14-.04-4.7-.09-3.51-.32-3.73-3.71-3.71-4.47.03-8.93.09-13.4.11-6.56.03-7.54,1.09-6.95,7.57.26,2.9,1.09,3.7,4.16,3.79,2.65.07,5.31.01,7.97.01ZM785.89,319.92c1.94,0,3.87.01,5.81,0,5.79-.05,6.47-.79,6.09-6.58-.23-3.49-1.16-4.46-4.7-4.54-3.99-.09-7.99,0-11.98-.05-6.57-.08-6.92-.35-6.97,7.14-.02,3.19.64,3.88,3.77,4.01,2.66.1,5.32.02,7.98.03ZM835.25,308.63c-1.09,0-2.18-.01-3.27,0-8.22.09-7.55-1.26-7.63,7.95-.02,2.55.37,2.93,2.96,2.97,4.35.07,8.71-.01,13.06.04,7.29.08,7.06.02,6.78-7.38-.11-2.76-1-3.49-3.92-3.57-2.66-.07-5.32-.02-7.98-.01ZM859.75,319.38v.02c1.33,0,2.66.02,3.98,0,8.17-.14,7.14,1.33,7.02-7.85-.03-2.47-.57-2.88-3.1-2.92-3.98-.06-7.97-.01-11.95-.01-7.27,0-7.67.44-7.11,7.86.17,2.24.6,2.79,2.83,2.88,2.77.11,5.55.03,8.33.03ZM882.5,319.56h0c2.29,0,4.58.07,6.87-.01,3.05-.11,4.12-1.16,4.31-4.14.07-1.08.06-2.18-.08-3.25-.28-2.03-1.5-3.38-3.56-3.44-4.94-.14-9.89-.06-14.83-.05-1.6,0-2.47.83-2.53,2.43-.06,1.81-.14,3.62-.08,5.42.07,2.45.5,2.9,3.03,3.02,2.29.11,4.58.02,6.87.02Z"/>
  <path d="M1003.73,291.94c26.15,0,52.3,0,78.45,0,5.47,0,5.49,0,5.42,5.38-.13,9.43-.27,18.87-.42,28.3-.03,2.07-.09,4.03,1.73,5.64,1.21,1.07,1.38,2.35-.34,3.57-1.28.9-1.96,2.71-3.28,3.45-1.28.72-3.14.32-4.57.87-3.16,1.23-6.23,2.51-9.76,2.33-2.45-.12-4.83-.18-6.96-1.59-1.77-1.17-3.54-1.13-5.49-.22-5.2,2.44-10.36,2.77-15.51-.37-1.05-.64-2.55-.75-3.84-.76-15.01-.09-30.02-.14-45.04-.16-23.6-.03-47.2-.13-70.8.05-5.99.04-9.22-4.42-9.64-9.23-.38-4.33-.34-8.7-.41-13.05-.06-3.99-.24-8,.05-11.97.16-2.22.95-4.47,1.85-6.54,1.67-3.85,4.77-5.39,9.01-5.39,21.19.02,42.37-.11,63.56-.17,5.33-.02,10.65,0,15.98,0,0-.05,0-.1,0-.15ZM989.57,308.47v.13c-1.81,0-3.61,0-5.42,0-7.13.02-7.74.7-7.07,7.96.23,2.48.88,3.34,3.32,3.35,6.02,0,12.04-.21,18.06-.3,1.85-.03,2.57-1,2.52-2.75-.05-1.93,0-3.86-.13-5.78-.15-2.21-.58-2.57-2.96-2.6-2.77-.04-5.54,0-8.31,0ZM963.6,319.91h0c2.05.01,4.11.02,6.16,0,5.92-.03,6.62-.81,6.16-6.82-.25-3.29-1.17-4.24-4.52-4.32-3.86-.09-7.73-.02-11.59-.04-6.94-.04-7.58-.86-7.38,7.72.06,2.69.72,3.3,3.56,3.42,2.53.11,5.07.02,7.61.02ZM1013.83,319.56c2.78,0,5.56.09,8.33-.03,2.56-.11,3.11-.77,3.25-3.32.3-5.58-.27-7.07-2.88-7.53-.12-.02-.24-.04-.36-.04-5.67,0-11.35,0-17.02.01-1.63,0-2.45.86-2.5,2.44-.06,1.93-.05,3.86-.1,5.79-.04,1.79.78,2.68,2.6,2.67,2.9-.02,5.79,0,8.69,0ZM1038.01,319.39v.02c1.33,0,2.66.02,3.99,0,7.89-.11,7.21,1.17,7.05-7.56-.05-2.84-.55-3.19-3.57-3.21-3.87-.04-7.73,0-11.6,0-7.13,0-7.72.66-7.1,7.93.19,2.18.65,2.73,2.91,2.81,2.78.1,5.56.02,8.34.02ZM1060.84,319.55h0c2.41-.01,4.83.08,7.23-.04,2.44-.12,3.49-1.15,3.78-3.52.12-.95.07-1.93.02-2.89-.18-3.1-1.38-4.38-4.48-4.45-4.46-.1-8.92-.08-13.38,0-2.52.05-2.97.52-3.13,2.94-.11,1.68-.13,3.37-.06,5.06.09,2.23.55,2.75,2.8,2.87,2.41.12,4.82.03,7.23.03Z"/>
  <path d="M645.62,291.94c26.15,0,52.3,0,78.45,0,5.38,0,5.4,0,5.32,5.48-.13,9.43-.26,18.87-.43,28.3-.04,2.09.01,4.01,1.79,5.62,1.24,1.12,1.34,2.58-.53,3.49-.22.1-.54.23-.59.4-.87,3.29-3.52,3.42-6.21,3.63-.81.06-1.67.41-2.38.84-2.73,1.64-5.73,1.74-8.77,1.77-2.21.02-4.35-.18-6.25-1.45-2.01-1.35-3.98-1.17-6.16-.15-4.96,2.31-9.91,2.43-14.85-.39-1.27-.73-3-.89-4.52-.9-7.99-.09-15.98-.03-23.97-.04-29.9-.04-59.79-.08-89.69-.14-8.05-.02-11.21-2.99-11.48-11.06-.24-7.37-.27-14.75-.36-22.13-.04-2.97.82-5.68,2.32-8.27,1.82-3.14,4.41-4.62,8.03-4.61,6.78,0,13.56-.15,20.34-.16,19.98-.02,39.95,0,59.93,0,0-.06,0-.13,0-.19ZM631.36,308.47v.13c-1.81,0-3.61,0-5.42,0-7.13.02-7.74.7-7.07,7.96.23,2.48.88,3.35,3.32,3.35,6.02,0,12.04-.21,18.06-.3,1.85-.03,2.57-1,2.52-2.75-.05-1.93,0-3.86-.13-5.78-.15-2.22-.58-2.57-2.96-2.6-2.77-.04-5.54,0-8.31,0ZM605.86,319.9s0-.02,0-.03c2.78,0,5.56.12,8.33-.03,2.83-.16,3.51-1.11,3.58-4.3.1-5-.59-6.56-3.58-6.66-5.67-.19-11.35-.1-17.03-.07-1.72,0-2.7,1.03-2.83,2.7-.13,1.68-.17,3.38-.1,5.06.1,2.52.71,3.19,3.3,3.3,2.77.13,5.55.03,8.33.03ZM655.73,319.57v-.02c2.78,0,5.55.09,8.32-.03,2.39-.1,3-.77,3.11-3.07.07-1.44.05-2.9-.06-4.34-.21-2.61-.99-3.42-3.64-3.47-5.31-.08-10.62-.07-15.93,0-2.57.04-2.97.46-3.13,2.92-.11,1.68-.12,3.38-.06,5.06.08,2.48.43,2.84,3.06,2.91,2.77.08,5.55.02,8.33.02ZM679.64,319.39h0c2.9,0,5.8-.03,8.7,0,1.83.02,2.64-.87,2.58-2.67-.06-1.81-.04-3.62-.1-5.43-.06-1.7-.82-2.68-2.68-2.67-5.44.04-10.88-.04-16.32.04-2.35.03-2.92.64-3.15,3.04-.15,1.56-.17,3.14-.11,4.71.09,2.4.58,2.89,3.1,2.97,2.66.09,5.32.02,7.98.02ZM702.57,319.55h0c2.29,0,4.58,0,6.87,0,.24,0,.48-.02.72-.03,2.01-.08,3.08-1.25,3.4-3.11.16-.94.13-1.92.1-2.88-.12-3.58-1.27-4.78-4.81-4.88-2.89-.08-5.79-.05-8.68-.02-8.06.08-7.59-1.24-7.59,7.98,0,2.27.52,2.8,2.75,2.91,2.4.13,4.82.03,7.23.03Z"/>
  <path d="M287,291.94c26.27,0,52.54,0,78.81,0,5.42,0,5.44,0,5.36,5.44-.13,9.43-.27,18.87-.43,28.3-.04,2.09-.03,4.02,1.77,5.63,1.23,1.1,1.28,2.38-.43,3.56-1.28.89-1.97,2.7-3.29,3.43-1.28.71-3.15.31-4.57.88-3.27,1.33-6.49,2.55-10.13,2.31-2.19-.14-4.35-.18-6.26-1.46-2-1.34-3.96-1.22-6.16-.19-4.96,2.32-9.9,2.44-14.86-.35-1.37-.77-3.24-.91-4.88-.93-7.99-.09-15.98-.03-23.97-.04-29.77-.04-59.55-.08-89.32-.14-8.06-.02-11.25-2.99-11.52-11.02-.25-7.37-.26-14.75-.37-22.13-.04-2.98.87-5.68,2.33-8.27,1.78-3.17,4.38-4.65,8-4.65,6.78,0,13.56-.15,20.34-.16,19.85-.02,39.71,0,59.56,0,0-.06,0-.13,0-.19ZM272.51,319.96s0,.06,0,.09c3.13-.15,6.25-.33,9.38-.42,1.78-.05,2.69-.82,2.65-2.64-.05-2.05-.08-4.09-.12-6.14-.03-1.61-.82-2.41-2.48-2.39-6.02.07-12.05.06-18.07.2-2.3.05-2.95.76-3.16,3.08-.14,1.55-.14,3.13-.06,4.69.14,2.68.84,3.4,3.54,3.5,2.77.1,5.54.02,8.31.02ZM247.68,319.9s0,.02,0,.02c1.81,0,3.62-.04,5.43,0,6.89.19,6.64-1.36,6.33-7.32-.14-2.69-1.18-3.73-3.87-3.79-5.43-.12-10.86-.12-16.29-.03-2.28.04-2.98.81-3.2,3.09-.15,1.56-.15,3.14-.07,4.7.13,2.48.76,3.17,3.34,3.29,2.77.13,5.55.03,8.33.03ZM297.29,319.57h0c1.69.01,3.38,0,5.07.02,7.03.11,6.84-.02,6.52-7.6-.1-2.42-.98-3.28-3.39-3.32-5.55-.09-11.1,0-16.65-.02-1.84,0-2.6,1-2.65,2.7-.04,1.81-.12,3.62-.05,5.42.08,2.27.48,2.7,2.82,2.77,2.77.09,5.55.02,8.33.02ZM321.53,319.39v.02c1.33,0,2.66.02,3.99,0,7.98-.13,7.29,1.35,7.08-7.87-.05-2.45-.61-2.86-3.15-2.9-3.99-.06-7.98-.01-11.96-.02-7.19,0-7.73.59-7.15,7.88.18,2.22.63,2.77,2.85,2.86,2.78.1,5.56.03,8.34.03ZM344.61,308.65c-2.41,0-4.83-.08-7.23.02-2.33.1-2.75.52-2.94,2.76-.13,1.56-.1,3.13-.08,4.7.05,2.91.42,3.37,3.36,3.42,4.46.08,8.92.08,13.38-.01,3.22-.07,4.22-1.17,4.36-4.45.03-.72.02-1.45-.03-2.17-.22-2.89-1.4-4.11-4.31-4.25-2.17-.1-4.34-.02-6.51-.02Z"/>
  <path d="M1217.8,149.52c-3.94.33-7.77.59-11.6.97-10.59,1.06-21.18,2.12-31.76,3.27-3.16.34-4.16-.86-5.06-3.48-.56-1.62-.13-3.14,1.58-3.99,1.3-.65,2.63-1.23,3.92-1.89,13.38-6.79,26.73-13.63,40.16-20.32,2.38-1.19,3.36-2.8,3.46-5.33.27-7.25.54-14.5,1-21.74.22-3.36.74-6.72,1.41-10.03.33-1.61,1.1-3.23,2.01-4.62,3.2-4.85,9.01-4.9,12.26-.04,1.04,1.56,1.92,3.48,2.12,5.31.84,7.44,1.45,14.9,2.04,22.37.22,2.77.32,5.57.19,8.34-.13,2.79.94,4.41,3.47,5.65,11.29,5.55,22.5,11.26,33.74,16.92,2.59,1.3,5.21,2.57,7.77,3.94.94.5,1.9,1.14,2.58,1.94,1.18,1.38,1.46,3.11.76,4.78-.76,1.81-2.49,2.28-4.23,2.18-3.14-.18-6.26-.55-9.39-.87-10.23-1.03-20.46-2.07-30.68-3.11-3.22-.33-3.7-.04-3.89,3.08-.27,4.34-.38,8.7-.54,13.05-.08,2.35,1.01,4.14,2.63,5.75,3.26,3.24,6.49,6.52,9.68,9.83.86.89,2.34,1.64,1.45,3.31-.92,1.71-2.44,1.69-4.1,1.39-5.23-.95-10.45-2.1-15.73-2.67-3.44-.37-7-.13-10.45.3-4.43.55-8.8,1.57-13.21,2.38-.71.13-1.44.24-2.16.24-1.93,0-2.85-1.39-1.98-3.14.41-.84,1.14-1.56,1.8-2.25,3.2-3.3,6.51-6.51,9.6-9.91.99-1.09,1.96-2.66,2-4.03.16-4.95-.06-9.92-.21-14.87-.02-.8-.37-1.6-.64-2.7Z"/>
  <path d="M374.11,145.97c-6.13.45-14.04-6.45-14.12-13.51-.08-7.38,5.92-13.43,13.36-13.43,7.63,0,14.17,6.19,14.33,13.57.15,7.01-6.25,13.32-13.57,13.37Z"/>
  <path d="M542.73,132.03c-.33,8.06-6.02,13.72-13.06,13.69-7.55-.03-13.95-5.64-14.1-12.85-.1-5.14,2.08-9.42,6.69-12.08,4.53-2.62,9.05-2.39,13.31.62,2.85,2.01,5.82,4.02,6.63,7.8.25,1.17.44,2.35.52,2.82Z"/>
  <path class="cls-1" d="M1508.66,314.7q1-6.08,7.36-6.07c4.24,0,8.47-.04,12.71,0,2.73.03,3.22.46,3.44,3.06.14,1.68.09,3.38.11,5.08.02,1.56-.62,2.64-2.31,2.58-6.75-.25-13.53.81-20.24-.58-.45-.09-.97-.14-1.41-.02-6.8,1.77-13.71.45-20.57.77-1.64.08-2.39-.93-2.44-2.51,0-.12-.02-.24-.02-.36-.04-8.07,1.03-8.25,7.54-8.05,3.63.11,7.26,0,10.9.02,3.86.03,4.61.77,4.87,4.63.03.48.04.96.07,1.44Z"/>
  <path class="cls-1" d="M1340.61,308.47c2.77,0,5.55-.02,8.32,0,2.52.03,2.91.37,3.06,2.9.11,1.8.04,3.61.08,5.42.04,1.72-.63,2.76-2.49,2.8-6.15.11-12.29.25-18.44.32-1.87.02-2.92-1.09-3.01-2.92-.09-1.8-.12-3.62.07-5.41.23-2.16,1.04-2.85,3.36-2.93,3.01-.1,6.03-.02,9.04-.02v-.16Z"/>
  <path class="cls-1" d="M1169.68,308.47c2.78,0,5.55-.04,8.33.01,2.33.04,2.83.4,2.85,2.72.06,9.62,1.34,8.14-7.64,8.67-4.09.24-8.21.14-12.31.07-3.04-.05-3.83-.89-4.07-3.87,0-.12,0-.24-.01-.36-.32-6.28.44-7.1,6.7-7.11,2.05,0,4.1,0,6.16,0v-.13Z"/>
  <path class="cls-1" d="M1143.99,319.89c-2.78,0-5.57.1-8.35-.03-2.51-.12-3.17-.86-3.27-3.37-.06-1.57-.02-3.15.16-4.71.25-2.25.94-2.96,3.29-3,5.44-.08,10.89-.08,16.33.06,2.54.07,3.6,1.07,3.77,3.52.45,6.53.34,7.68-6.48,7.55-1.81-.04-3.63,0-5.44,0v-.03Z"/>
  <path class="cls-1" d="M1315.16,319.88c-2.77,0-5.55.11-8.32-.03-2.6-.13-3.21-.8-3.33-3.29-.08-1.68-.03-3.38.1-5.06.13-1.66,1.09-2.7,2.82-2.7,5.67-.02,11.34-.12,17.01.08,3.03.1,3.64,1.51,3.54,6.62-.06,3.39-.72,4.23-3.85,4.38-2.65.12-5.31.03-7.96.03h0Z"/>
  <path class="cls-1" d="M1193.85,319.57c-2.9,0-5.81-.02-8.71,0-1.83.02-2.63-.84-2.6-2.65.14-9.73-.62-8.19,7.69-8.29,3.63-.04,7.26-.05,10.88,0,3.34.05,4.09.78,4.3,3.96.45,6.7.19,6.98-6.48,6.99-1.69,0-3.39,0-5.08,0h0Z"/>
  <path class="cls-1" d="M1364.68,319.58c-1.81,0-3.63,0-5.44,0q-5.66,0-5.6-5.84c0-.48,0-.97.01-1.45.14-3.22.47-3.62,3.55-3.66,5.08-.06,10.16-.07,15.23,0,3.1.04,3.78.8,3.97,3.88.04.72.03,1.45.05,2.17.12,4.57-.15,4.85-4.88,4.88-2.3.02-4.59,0-6.89,0Z"/>
  <path class="cls-1" d="M1389.2,319.39c-2.78,0-5.56.07-8.34-.02-2.47-.08-2.98-.61-3.02-3.04-.03-1.69.14-3.38.24-5.06.11-1.73,1.01-2.64,2.78-2.64,5.56,0,11.12.01,16.67,0,1.65,0,2.48.82,2.55,2.39.08,2.05.09,4.1.09,6.15,0,1.49-.83,2.19-2.28,2.19-2.9,0-5.8,0-8.7,0v.02Z"/>
  <path class="cls-1" d="M1218.14,319.39c-2.78,0-5.56.07-8.33-.02-2.43-.08-2.91-.61-2.98-3.08-.05-1.69.01-3.38.11-5.06.1-1.73,1.07-2.61,2.82-2.61,5.56,0,11.11.02,16.67,0,1.64,0,2.48.81,2.54,2.4.07,2.05.08,4.1.11,6.15.02,1.5-.76,2.2-2.23,2.2-2.9,0-5.8,0-8.69,0v.02Z"/>
  <path class="cls-1" d="M1630.9,323.55c-.89,1.4-1.93,1.27-2.97.79-5.48-2.5-11.1-4.75-16.39-7.62-6.67-3.61-13.11-7.65-19.55-11.67-2.3-1.44-4.46-3.23-5.59-6.11,1.86-.72,3.28.3,4.56.88,13.49,6.05,26.12,13.6,38.18,22.12.64.45,1.17,1.06,1.76,1.61Z"/>
  <path class="cls-1" d="M1543.94,319.56c-2.41,0-4.83.09-7.23-.02-2.48-.11-2.96-.63-3.04-3.03-.06-1.68.01-3.37.06-5.06.05-1.69.82-2.75,2.63-2.76,4.94-.02,9.89-.09,14.83.03,1.99.05,3.33,1.4,3.7,3.37.22,1.17.25,2.41.16,3.6-.18,2.55-1.29,3.69-3.87,3.83-2.4.13-4.82.03-7.23.03v.02Z"/>
  <path class="cls-1" d="M1411.72,319.55c-2.41,0-4.82.02-7.24,0-1.74-.02-2.68-.89-2.64-2.7.04-1.81.05-3.61.09-5.42.04-1.69.75-2.76,2.6-2.76,4.82,0,9.65-.09,14.47.04,2.48.07,3.66,1.39,3.91,3.86.08.84.09,1.69.05,2.53-.14,3.28-1.14,4.34-4.36,4.45-2.29.08-4.58.02-6.87.02v-.02Z"/>
  <path class="cls-1" d="M1240.78,319.55c-2.41,0-4.83.1-7.23-.03-2.24-.12-2.73-.63-2.73-2.93,0-9.14-.54-7.88,7.6-7.95,2.89-.03,5.79-.06,8.68.02,3.51.09,4.67,1.32,4.8,4.89.02.6.05,1.21,0,1.81-.21,3.02-1.24,4.09-4.26,4.2-2.29.09-4.58.02-6.87.02v-.02Z"/>
  <path class="cls-1" d="M1474.14,319.56c-2.42,0-4.84.08-7.25-.02-2.3-.1-3.45-1-3.59-3.24-.29-4.7.41-7.64,6.02-7.65,3.75-.01,7.5-.06,11.24.02,2.69.06,3.11.49,3.33,3.18.14,1.68.12,3.38.16,5.07.04,1.8-.85,2.66-2.65,2.66-2.42-.01-4.84,0-7.25,0Z"/>
  <path class="cls-1" d="M1373.77,164.32c-19.15-.18-34.65-12.15-37.69-30.75-2.19-13.38.89-25.75,12.42-34.66.38-.3.79-.57,1.14-.9,7.42-7.04,16.59-7.85,26.07-7.03,7.3.63,14.28,2.41,20.16,7.23,10.82,8.87,15.18,20.26,13.5,34.04-.25,2.03-.61,4.06-1.08,6.05-3.13,13.33-14.39,23.5-28.03,25.33-2.15.29-4.31.46-6.47.68Z"/>
  <path class="cls-1" d="M94.93,308.47c2.78,0,5.55-.03,8.33,0,2.43.03,2.82.34,2.95,2.62.12,2.04.07,4.1.06,6.15,0,1.44-.71,2.28-2.18,2.31-6.27.13-12.55.36-18.82.3-2.58-.03-3.21-1.54-3.09-5.85.11-4.04.74-5.22,3.34-5.34,3.13-.15,6.27-.03,9.41-.03,0-.06,0-.11,0-.17Z"/>
  <path class="cls-1" d="M69.44,319.92c-2.66,0-5.33.08-7.98-.02-3.13-.12-3.74-.83-3.73-4.02,0-1.45.07-2.9.18-4.35.13-1.69,1.08-2.71,2.8-2.72,5.68-.03,11.37-.08,17.05.07,2.31.06,3.16,1.12,3.53,3.39.02.12.03.24.03.36.2,5.88.61,7.44-6.43,7.3-1.81-.04-3.63,0-5.44,0,0,0,0,0,0,0Z"/>
  <path class="cls-1" d="M119.12,319.57c-2.78,0-5.56.06-8.34-.02-2.44-.07-2.79-.42-2.86-2.72-.06-1.81.03-3.62.07-5.44.03-1.7.73-2.76,2.59-2.76,5.68.01,11.37-.11,17.05.06,2.85.09,3.38,1.56,3.19,7.23-.1,2.82-.64,3.5-3.35,3.6-2.78.11-5.56.02-8.34.02,0,0,0,0,0,0Z"/>
  <path class="cls-1" d="M143.51,319.39c-2.78,0-5.56.07-8.33-.02-2.45-.08-2.92-.6-3-3.06-.05-1.69.02-3.38.11-5.06.1-1.72,1.05-2.62,2.81-2.62,5.56,0,11.11.01,16.67,0,1.63,0,2.49.79,2.55,2.38.08,2.05.1,4.1.12,6.15.01,1.48-.76,2.21-2.23,2.22-2.9,0-5.8,0-8.69,0,0,0,0,.01,0,.02Z"/>
  <path class="cls-1" d="M166.37,319.56c-2.41,0-4.83.09-7.23-.02-2.47-.12-2.89-.59-2.96-3.08-.05-1.68.02-3.37.05-5.06.03-1.71.8-2.73,2.63-2.73,4.82,0,9.65-.09,14.47.04,2.46.07,3.64,1.41,3.9,3.89.09.84.09,1.69.05,2.53-.15,3.23-1.2,4.32-4.39,4.44-2.17.08-4.34.01-6.51.01,0,0,0,0,0,0Z"/>
  <path class="cls-1" d="M452.41,319.96c-2.78,0-5.55.08-8.33-.02-2.58-.1-3.36-.95-3.66-3.52-.03-.24-.02-.48-.04-.72-.32-6.26.45-7.06,6.73-7.09,4.71-.02,9.41-.1,14.12-.11,2.74,0,3.2.34,3.2,3.11,0,9,1.37,7.73-7.69,8.3-1.44.09-2.9.01-4.34.01v.05Z"/>
  <path class="cls-1" d="M427.49,319.91c-2.66,0-5.33.09-7.98-.02-2.91-.13-3.61-.86-3.57-3.82.1-7.53.09-7.42,7.15-7.32,3.87.05,7.74-.03,11.62.05,3.77.08,4.69,1.03,4.88,4.74.3,5.62-.36,6.34-5.93,6.39-2.06.02-4.11,0-6.17,0h0Z"/>
  <path class="cls-1" d="M477.32,319.57c-2.78,0-5.57.06-8.34-.02-2.44-.07-2.77-.42-2.84-2.73-.06-1.81.03-3.62.06-5.44.03-1.71.75-2.75,2.61-2.74,5.68.01,11.37-.02,17.05.03,1.86.02,2.86,1.11,3.06,2.94.03.24.04.48.05.72.18,7.06.53,7.38-6.57,7.26-1.69-.03-3.39,0-5.08,0h0Z"/>
  <path class="cls-1" d="M512.48,319.41c-2.09,0-3.64,0-5.18,0-4.35,0-8.7.03-13.04-.02-3.54-.04-3.86-.41-3.87-4.04,0-1.33.02-2.66.1-3.98.1-1.66.88-2.74,2.7-2.74,5.68,0,11.35,0,17.03,0,1.25,0,2.19.6,2.24,1.88.1,2.73.03,5.48.03,8.89Z"/>
  <path class="cls-1" d="M524.55,319.56c-2.41,0-4.83.09-7.23-.03-2.43-.12-2.86-.62-2.93-3.12-.05-1.68.02-3.37.06-5.06.04-1.72.85-2.7,2.66-2.69,4.82,0,9.65-.09,14.47.04,2.43.07,3.63,1.44,3.87,3.92.09.96.11,1.93.04,2.89-.22,2.83-1.25,3.83-4.05,4.04-.24.02-.48.02-.72.02-2.05,0-4.1,0-6.15,0v-.02Z"/>
  <path class="cls-1" d="M810.75,319.97c-2.66,0-5.31.06-7.97-.01-3.06-.08-3.89-.89-4.16-3.79-.59-6.48.39-7.54,6.95-7.57,4.47-.02,8.93-.08,13.4-.11,3.39-.02,3.62.2,3.71,3.71.04,1.57,0,3.14.04,4.7.05,1.79-.76,2.65-2.58,2.71-3.13.1-6.27.29-9.4.44,0-.03,0-.06,0-.08Z"/>
  <path class="cls-1" d="M785.89,319.92c-2.66,0-5.33.08-7.98-.02-3.13-.12-3.79-.82-3.77-4.01.05-7.49.4-7.23,6.97-7.14,3.99.05,7.99-.04,11.98.05,3.55.08,4.48,1.05,4.7,4.54.38,5.79-.31,6.53-6.09,6.58-1.94.02-3.87,0-5.81,0Z"/>
  <path class="cls-1" d="M835.25,308.63c2.66,0,5.32-.06,7.98.01,2.92.08,3.82.81,3.92,3.57.28,7.4.51,7.46-6.78,7.38-4.35-.05-8.71.04-13.06-.04-2.59-.04-2.98-.42-2.96-2.97.08-9.21-.59-7.86,7.63-7.95,1.09-.01,2.18,0,3.27,0Z"/>
  <path class="cls-1" d="M859.75,319.38c-2.78,0-5.56.08-8.33-.03-2.23-.09-2.66-.64-2.83-2.88-.56-7.41-.16-7.86,7.11-7.86,3.98,0,7.97-.04,11.95.01,2.53.04,3.07.45,3.1,2.92.12,9.17,1.15,7.71-7.02,7.85-1.33.02-2.66,0-3.98,0v-.02Z"/>
  <path class="cls-1" d="M882.5,319.56c-2.29,0-4.59.08-6.87-.02-2.53-.12-2.95-.57-3.03-3.02-.05-1.8.02-3.61.08-5.42.06-1.59.93-2.42,2.53-2.43,4.94,0,9.89-.08,14.83.05,2.06.06,3.28,1.4,3.56,3.44.15,1.07.15,2.17.08,3.25-.19,2.98-1.26,4.03-4.31,4.14-2.29.08-4.58.02-6.87.02h0Z"/>
  <path class="cls-1" d="M989.57,308.47c2.77,0,5.54-.03,8.31,0,2.38.03,2.81.39,2.96,2.6.13,1.92.08,3.85.13,5.78.05,1.74-.67,2.72-2.52,2.75-6.02.1-12.04.31-18.06.3-2.44,0-3.09-.86-3.32-3.35-.66-7.26-.05-7.95,7.07-7.96,1.81,0,3.61,0,5.42,0v-.13Z"/>
  <path class="cls-1" d="M963.6,319.91c-2.54,0-5.08.08-7.61-.02-2.85-.12-3.5-.74-3.56-3.42-.2-8.57.44-7.76,7.38-7.72,3.86.02,7.73-.05,11.59.04,3.35.08,4.27,1.03,4.52,4.32.46,6.01-.24,6.79-6.16,6.82-2.05,0-4.11,0-6.16,0h0Z"/>
  <path class="cls-1" d="M1013.83,319.56c-2.9,0-5.79-.01-8.69,0-1.82.01-2.64-.88-2.6-2.67.05-1.93.04-3.86.1-5.79.05-1.58.88-2.44,2.5-2.44,5.67,0,11.35,0,17.02-.01.12,0,.24.01.36.04,2.62.46,3.19,1.94,2.88,7.53-.14,2.55-.69,3.22-3.25,3.32-2.77.12-5.55.03-8.33.02Z"/>
  <path class="cls-1" d="M1038.01,319.39c-2.78,0-5.56.08-8.34-.02-2.26-.08-2.72-.63-2.91-2.81-.62-7.27-.02-7.93,7.1-7.93,3.87,0,7.73-.03,11.6,0,3.03.03,3.52.37,3.57,3.21.17,8.73.85,7.45-7.05,7.56-1.33.02-2.66,0-3.99,0v-.02Z"/>
  <path class="cls-1" d="M1060.84,319.55c-2.41,0-4.83.09-7.23-.03-2.25-.11-2.72-.64-2.8-2.87-.07-1.68-.05-3.38.06-5.06.16-2.42.61-2.89,3.13-2.94,4.46-.08,8.92-.1,13.38,0,3.11.07,4.3,1.35,4.48,4.45.06.96.1,1.94-.02,2.89-.29,2.37-1.33,3.4-3.78,3.52-2.41.12-4.82.03-7.23.03h0Z"/>
  <path class="cls-1" d="M631.36,308.47c2.77,0,5.54-.03,8.31,0,2.38.03,2.81.39,2.96,2.6.13,1.92.08,3.85.13,5.78.05,1.74-.67,2.72-2.52,2.75-6.02.1-12.04.31-18.06.3-2.44,0-3.09-.87-3.32-3.35-.66-7.26-.05-7.94,7.07-7.96,1.81,0,3.61,0,5.42,0v-.13Z"/>
  <path class="cls-1" d="M605.86,319.9c-2.78,0-5.56.1-8.33-.03-2.58-.12-3.19-.78-3.3-3.3-.07-1.68-.03-3.38.1-5.06.13-1.67,1.11-2.69,2.83-2.7,5.68-.03,11.36-.13,17.03.07,2.99.1,3.68,1.67,3.58,6.66-.06,3.19-.74,4.14-3.58,4.3-2.77.16-5.55.03-8.33.03,0,0,0,.02,0,.03Z"/>
  <path class="cls-1" d="M655.73,319.57c-2.78,0-5.55.06-8.33-.02-2.63-.07-2.98-.43-3.06-2.91-.06-1.69-.05-3.38.06-5.06.17-2.47.56-2.89,3.13-2.92,5.31-.07,10.62-.09,15.93,0,2.65.04,3.43.86,3.64,3.47.12,1.44.14,2.9.06,4.34-.12,2.3-.73,2.97-3.11,3.07-2.77.12-5.55.03-8.32.03v.02Z"/>
  <path class="cls-1" d="M679.64,319.39c-2.66,0-5.32.07-7.98-.02-2.52-.08-3-.57-3.1-2.97-.06-1.57-.04-3.15.11-4.71.23-2.4.8-3.01,3.15-3.04,5.44-.07,10.88,0,16.32-.04,1.86-.01,2.62.97,2.68,2.67.06,1.81.04,3.62.1,5.43.06,1.8-.75,2.69-2.58,2.67-2.9-.02-5.8,0-8.7,0h0Z"/>
  <path class="cls-1" d="M702.57,319.55c-2.41,0-4.83.1-7.23-.03-2.23-.12-2.75-.65-2.75-2.91,0-9.21-.48-7.9,7.59-7.98,2.89-.03,5.79-.06,8.68.02,3.54.09,4.68,1.3,4.81,4.88.03.96.07,1.94-.1,2.88-.32,1.86-1.39,3.03-3.4,3.11-.24,0-.48.03-.72.03-2.29,0-4.58,0-6.87,0h0Z"/>
  <path class="cls-1" d="M272.51,319.96c-2.77,0-5.54.08-8.31-.02-2.7-.1-3.39-.83-3.54-3.5-.08-1.56-.08-3.14.06-4.69.21-2.32.86-3.03,3.16-3.08,6.02-.14,12.05-.13,18.07-.2,1.65-.02,2.44.78,2.48,2.39.04,2.05.07,4.09.12,6.14.04,1.81-.87,2.58-2.65,2.64-3.13.09-6.26.28-9.38.42,0-.03,0-.06,0-.09Z"/>
  <path class="cls-1" d="M247.68,319.9c-2.78,0-5.56.1-8.33-.03-2.58-.12-3.21-.8-3.34-3.29-.08-1.56-.08-3.14.07-4.7.21-2.27.92-3.05,3.2-3.09,5.43-.09,10.86-.09,16.29.03,2.68.06,3.73,1.09,3.87,3.79.31,5.96.56,7.51-6.33,7.32-1.81-.05-3.62,0-5.43,0,0,0,0-.02,0-.02Z"/>
  <path class="cls-1" d="M297.29,319.57c-2.78,0-5.55.07-8.33-.02-2.34-.08-2.74-.5-2.82-2.77-.07-1.81,0-3.62.05-5.42.04-1.7.8-2.71,2.65-2.7,5.55.01,11.1-.07,16.65.02,2.41.04,3.28.9,3.39,3.32.32,7.57.52,7.71-6.52,7.6-1.69-.03-3.38,0-5.07,0h0Z"/>
  <path class="cls-1" d="M321.53,319.39c-2.78,0-5.56.08-8.34-.03-2.23-.08-2.68-.64-2.85-2.86-.58-7.29-.04-7.88,7.15-7.88,3.99,0,7.98-.04,11.96.02,2.54.04,3.09.45,3.15,2.9.21,9.22.9,7.74-7.08,7.87-1.33.02-2.66,0-3.99,0v-.02Z"/>
  <path class="cls-1" d="M344.61,308.65c2.17,0,4.35-.08,6.51.02,2.91.14,4.09,1.36,4.31,4.25.06.72.07,1.45.03,2.17-.14,3.28-1.14,4.39-4.36,4.45-4.46.09-8.92.09-13.38.01-2.94-.05-3.31-.51-3.36-3.42-.03-1.57-.05-3.14.08-4.7.18-2.24.61-2.67,2.94-2.76,2.41-.1,4.82-.02,7.23-.02Z"/>
</svg>