<svg width="800" height="800" viewBox="0 0 800 800" fill="none" xmlns="http://www.w3.org/2000/svg">
<path d="M466.664 366.667C466.664 348.257 481.587 333.334 499.997 333.334C518.407 333.334 533.331 348.257 533.331 366.667V433.334C533.331 451.744 518.407 466.667 499.997 466.667C481.587 466.667 466.664 451.744 466.664 433.334V366.667Z" stroke="#E23428" stroke-width="50"/>
<path d="M467.127 566.667L492.127 566.741V566.667H467.127ZM467.127 233.334H492.127V233.261L467.127 233.334ZM491.933 633.504L492.127 566.741L442.127 566.594L441.933 633.357L491.933 633.504ZM500.543 558.334C505.25 558.334 508.96 562.124 508.96 566.667H558.96C558.96 534.391 532.747 508.334 500.543 508.334V558.334ZM500.543 508.334C468.34 508.334 442.127 534.391 442.127 566.667H492.127C492.127 562.124 495.837 558.334 500.543 558.334V508.334ZM333.171 158.334H450.177V108.334H333.171V158.334ZM433.6 641.667H333.171V691.667H433.6V641.667ZM333.171 641.667C269.455 641.667 224.177 641.614 189.826 637.007C156.188 632.497 136.798 624.034 122.645 609.914L87.3338 645.314C112.33 670.247 144.02 681.311 183.18 686.564C221.627 691.721 270.865 691.667 333.171 691.667V641.667ZM333.171 108.334C270.865 108.334 221.627 108.281 183.18 113.437C144.02 118.689 112.33 129.752 87.3338 154.687L122.645 190.086C136.798 175.968 156.188 167.505 189.826 162.994C224.177 158.387 269.455 158.334 333.171 158.334V108.334ZM86.2505 363.617C99.1071 370.797 107.672 384.434 107.672 400.001H157.672C157.672 365.547 138.623 335.594 110.629 319.962L86.2505 363.617ZM92.0008 300.7C94.6018 238.832 103.052 209.63 122.645 190.086L87.3338 154.687C53.0155 188.92 44.6741 236.062 42.0448 298.6L92.0008 300.7ZM107.672 400.001C107.672 415.567 99.1071 429.204 86.2505 436.384L110.629 480.041C138.623 464.407 157.672 434.454 157.672 400.001H107.672ZM42.0448 501.401C44.6741 563.941 53.0155 611.081 87.3338 645.314L122.645 609.914C103.052 590.371 94.6018 561.171 92.0008 499.301L42.0448 501.401ZM692.333 400.001C692.333 384.434 700.9 370.797 713.757 363.617L689.377 319.962C661.383 335.594 642.333 365.547 642.333 400.001H692.333ZM757.963 298.6C755.333 236.062 746.99 188.92 712.673 154.687L677.36 190.086C696.953 209.63 705.407 238.832 708.007 300.7L757.963 298.6ZM713.757 436.384C700.9 429.204 692.333 415.567 692.333 400.001H642.333C642.333 434.454 661.383 464.407 689.377 480.041L713.757 436.384ZM708.007 499.301C705.407 561.171 696.953 590.371 677.36 609.914L712.673 645.314C746.99 611.081 755.333 563.941 757.963 501.401L708.007 499.301ZM689.377 480.041C698.843 485.324 705.027 488.787 709.207 491.424C711.267 492.724 712.18 493.414 712.453 493.644C712.937 494.044 711.253 492.821 709.643 489.944L753.273 465.521C750.513 460.591 746.813 457.181 744.35 455.141C741.68 452.927 738.713 450.921 735.883 449.137C730.293 445.611 722.683 441.371 713.757 436.384L689.377 480.041ZM757.963 501.401C758.203 495.687 758.473 489.791 758.257 484.861C758.037 479.864 757.263 472.651 753.273 465.521L709.643 489.944C707.957 486.931 708.207 484.857 708.303 487.057C708.347 488.014 708.353 489.407 708.297 491.547C708.243 493.681 708.137 496.157 708.007 499.301L757.963 501.401ZM713.757 363.617C722.683 358.631 730.293 354.391 735.883 350.864C738.713 349.081 741.68 347.074 744.35 344.861C746.813 342.821 750.513 339.411 753.273 334.481L709.643 310.057C711.253 307.182 712.937 305.958 712.453 306.358C712.18 306.586 711.267 307.278 709.207 308.576C705.027 311.213 698.843 314.677 689.377 319.962L713.757 363.617ZM708.007 300.7C708.137 303.843 708.243 306.321 708.297 308.453C708.353 310.594 708.347 311.989 708.303 312.943C708.207 315.143 707.957 313.069 709.643 310.057L753.273 334.481C757.263 327.352 758.037 320.137 758.257 315.14C758.473 310.212 758.203 304.316 757.963 298.6L708.007 300.7ZM86.2505 436.384C77.3231 441.371 69.7135 445.611 64.1228 449.137C61.2941 450.921 58.3271 452.927 55.6558 455.141C53.1921 457.181 49.4948 460.591 46.7335 465.521L90.3628 489.944C88.7535 492.821 87.0695 494.044 87.5528 493.644C87.8281 493.414 88.7418 492.724 90.7991 491.424C94.9798 488.787 101.164 485.324 110.629 480.041L86.2505 436.384ZM92.0008 499.301C91.8685 496.157 91.7651 493.681 91.7101 491.547C91.6548 489.407 91.6611 488.014 91.7031 487.057C91.7998 484.857 92.0491 486.931 90.3628 489.944L46.7335 465.521C42.7438 472.651 41.9711 479.864 41.7515 484.861C41.5345 489.791 41.8045 495.687 42.0448 501.401L92.0008 499.301ZM110.629 319.962C101.164 314.677 94.9798 311.213 90.7988 308.576C88.7415 307.278 87.8281 306.586 87.5528 306.358C87.0695 305.958 88.7538 307.182 90.3631 310.057L46.7335 334.481C49.4945 339.411 53.1918 342.821 55.6555 344.861C58.3271 347.074 61.2941 349.081 64.1225 350.864C69.7135 354.391 77.3231 358.631 86.2505 363.617L110.629 319.962ZM42.0448 298.6C41.8045 304.316 41.5345 310.212 41.7515 315.14C41.9711 320.137 42.7438 327.352 46.7335 334.481L90.3631 310.057C92.0495 313.069 91.7998 315.143 91.7031 312.943C91.6611 311.989 91.6548 310.594 91.7101 308.453C91.7651 306.321 91.8685 303.843 92.0008 300.7L42.0448 298.6ZM492.127 233.261L491.883 149.88L441.883 150.025L442.127 233.407L492.127 233.261ZM500.543 241.667C495.837 241.667 492.127 237.878 492.127 233.334H442.127C442.127 265.609 468.34 291.667 500.543 291.667V241.667ZM508.96 233.334C508.96 237.878 505.25 241.667 500.543 241.667V291.667C532.747 291.667 558.96 265.609 558.96 233.334H508.96ZM508.96 150.54V233.334H558.96V150.54H508.96ZM550.283 158.956C623.223 160.837 655.927 168.709 677.36 190.086L712.673 154.687C675.59 117.695 623.133 110.818 551.573 108.972L550.283 158.956ZM558.96 150.54C558.96 155.201 555.117 159.08 550.283 158.956L551.573 108.972C528.1 108.367 508.96 127.279 508.96 150.54H558.96ZM450.177 158.334C445.663 158.334 441.897 154.676 441.883 150.025L491.883 149.88C491.817 126.857 473.107 108.334 450.177 108.334V158.334ZM568.847 690.451C631.333 687.811 678.437 679.467 712.673 645.314L677.36 609.914C657.787 629.437 628.547 637.884 566.737 640.494L568.847 690.451ZM508.96 566.667V632.551H558.96V566.667H508.96ZM441.933 633.357C441.92 637.367 441.91 640.454 441.837 643.087C441.763 645.737 441.637 647.307 441.503 648.271C441.373 649.214 441.323 648.897 441.713 647.957C442.183 646.817 443.04 645.391 444.333 644.101L479.637 679.507C487.49 671.674 490.037 662.364 491.04 655.071C491.943 648.494 491.913 640.634 491.933 633.504L441.933 633.357ZM433.6 691.667C440.73 691.667 448.59 691.721 455.167 690.837C462.467 689.857 471.783 687.337 479.637 679.507L444.333 644.101C445.627 642.811 447.057 641.957 448.197 641.491C449.14 641.104 449.457 641.154 448.513 641.281C447.55 641.411 445.977 641.534 443.33 641.601C440.697 641.667 437.61 641.667 433.6 641.667V691.667ZM566.737 640.494C562.71 640.664 559.633 640.794 557.007 640.834C554.37 640.874 552.833 640.814 551.92 640.724C551.033 640.637 551.423 640.584 552.45 640.974C553.68 641.444 555.123 642.284 556.393 643.501L521.79 679.594C529.93 687.397 539.437 689.737 547.03 690.484C553.76 691.147 561.73 690.751 568.847 690.451L566.737 640.494ZM508.96 632.551C508.96 639.844 508.903 647.914 509.837 654.657C510.88 662.184 513.57 671.714 521.79 679.594L556.393 643.501C557.713 644.767 558.617 646.211 559.127 647.404C559.547 648.387 559.497 648.741 559.363 647.791C559.23 646.821 559.1 645.221 559.03 642.511C558.96 639.817 558.96 636.657 558.96 632.551H508.96Z" fill="#E23428"/>
</svg>
