<svg width="800" height="800" viewBox="0 0 800 800" fill="none" xmlns="http://www.w3.org/2000/svg">
<g clip-path="url(#clip0_288_2)">
<path fill-rule="evenodd" clip-rule="evenodd" d="M700.003 599.999C718.413 599.999 733.336 614.923 733.336 633.333C733.336 651.743 718.413 666.666 700.003 666.666H66.6693C48.2599 666.666 33.3359 651.743 33.3359 633.333C33.3359 614.923 48.2599 599.999 66.6693 599.999H700.003ZM400.003 166.666C507.483 166.666 598.066 202.515 662.263 252.955C725.309 302.492 766.669 369.509 766.669 433.333C766.669 461.386 758.063 485.349 742.899 504.686C728.123 523.526 708.429 536.343 688.363 545.123C648.843 562.413 601.799 566.666 566.669 566.666H99.7946C62.7046 566.666 33.3359 536.546 33.3359 499.999V233.333C33.3359 196.622 62.9929 166.666 99.9199 166.666H400.003ZM693.903 399.999H100.003V499.999H566.669C598.206 499.999 634.496 495.919 661.643 484.043C674.909 478.239 684.383 471.266 690.439 463.543C696.109 456.316 700.003 446.946 700.003 433.333C700.003 423.136 697.993 411.866 693.903 399.999ZM233.336 233.333H100.003V333.333H233.336V233.333ZM400.003 233.333H300.003V333.333H433.336V234.69C422.483 233.798 411.366 233.333 400.003 233.333ZM500.003 246.098V333.333H651.716C642.786 323.806 632.583 314.418 621.076 305.377C588.996 280.172 548.093 258.858 500.003 246.098Z" fill="#E23428"/>
</g>
<defs>
<clipPath id="clip0_288_2">
<rect width="800" height="800" fill="white"/>
</clipPath>
</defs>
</svg>
